<svg xmlns="http://www.w3.org/2000/svg" viewBox="0 0 1493.3 287.092">
  <defs>
    <style>
      .cls-1 {
        fill: #332f30;
      }

      .cls-2 {
        fill: #fff;
      }

      .cls-2, .cls-3, .cls-4, .cls-5 {
        opacity: 0.05;
      }

      .cls-3, .cls-4, .cls-5, .cls-7 {
        fill: none;
      }

      .cls-3, .cls-4, .cls-5 {
        stroke: #fff;
      }

      .cls-3 {
        stroke-width: 6px;
      }

      .cls-4 {
        stroke-width: 7px;
      }

      .cls-5 {
        stroke-width: 4px;
      }

      .cls-6 {
        stroke: none;
      }
    </style>
  </defs>
  <g id="background" transform="translate(17.918 -2764.222)">
    <rect id="Rectangle_291" data-name="Rectangle 291" class="cls-1" width="1440" height="230" transform="translate(0 2800)"/>
    <g id="Symbol_3_1" data-name="Symbol 3 – 1">
      <path id="Union_33" data-name="Union 33" class="cls-2" d="M29.276,86.2l5.3-15.389-15.1-5.5,2.964-8.143,2.5-7.248-15.1-5.5.07-.193-.265-.1,5.777-15.05L.2,23.544l.07-.193L0,23.249,8.923,0l8.251,3.167L11.4,18.218l15.222,5.541-.071.192.266.1L21.036,39.1l15.223,5.54L33.3,52.782l-2.5,7.253,15.1,5.5-2.945,8.089L37.63,89.079Z" transform="translate(1400.598 2996.452) rotate(85)"/>
      <path id="Union_42" data-name="Union 42" class="cls-2" d="M29.276,86.2l5.3-15.389-15.1-5.5,2.964-8.143,2.5-7.248-15.1-5.5.07-.193-.265-.1,5.777-15.05L.2,23.544l.07-.193L0,23.249,8.923,0l8.251,3.167L11.4,18.218l15.222,5.541-.071.192.266.1L21.036,39.1l15.223,5.54L33.3,52.782l-2.5,7.253,15.1,5.5-2.945,8.089L37.63,89.079Z" transform="translate(551.598 2945.452) rotate(85)"/>
      <path id="Union_46" data-name="Union 46" class="cls-2" d="M29.276,86.2l5.3-15.389-15.1-5.5,2.964-8.143,2.5-7.248-15.1-5.5.07-.193-.265-.1,5.777-15.05L.2,23.544l.07-.193L0,23.249,8.923,0l8.251,3.167L11.4,18.218l15.222,5.541-.071.192.266.1L21.036,39.1l15.223,5.54L33.3,52.782l-2.5,7.253,15.1,5.5-2.945,8.089L37.63,89.079Z" transform="translate(1321.106 2781.861) rotate(80)"/>
      <path id="Union_40" data-name="Union 40" class="cls-2" d="M29.276,86.2l5.3-15.389-15.1-5.5,2.964-8.143,2.5-7.248-15.1-5.5.07-.193-.265-.1,5.777-15.05L.2,23.544l.07-.193L0,23.249,8.923,0l8.251,3.167L11.4,18.218l15.222,5.541-.071.192.266.1L21.036,39.1l15.223,5.54L33.3,52.782l-2.5,7.253,15.1,5.5-2.945,8.089L37.63,89.079Z" transform="translate(623.706 2846.583) rotate(-54)"/>
      <path id="Union_38" data-name="Union 38" class="cls-2" d="M19.292,56.8l3.491-10.141-9.95-3.621,1.953-5.366L16.431,32.9l-9.95-3.621.046-.127-.174-.067,3.807-9.918L.129,15.515l.046-.127L0,15.32,5.88,0l5.437,2.087L7.51,12l10.031,3.651-.047.127.175.067-3.808,9.918,10.032,3.651-1.952,5.363L20.3,39.561l9.95,3.621L28.3,48.513,24.8,58.7Z" transform="translate(978.457 2944.339) rotate(-30)"/>
      <path id="Union_43" data-name="Union 43" class="cls-2" d="M27.864,82.044,32.906,67.4l-14.371-5.23,2.821-7.75,2.375-6.9L9.36,42.288l.067-.184-.252-.1,5.5-14.324L.186,22.409l.067-.184L0,22.128,8.493,0l7.853,3.014-5.5,14.325,14.488,5.274-.068.183.253.1-5.5,14.325L34.51,42.491l-2.819,7.746-2.377,6.9,14.371,5.23-2.8,7.7L35.815,84.782Z" transform="translate(170.485 2962.232) rotate(52)"/>
      <rect id="Rectangle_344" data-name="Rectangle 344" class="cls-2" width="44" height="44" transform="matrix(0.819, -0.574, 0.574, 0.819, 1281.299, 2906.977)"/>
      <rect id="Rectangle_369" data-name="Rectangle 369" class="cls-2" width="45" height="45" transform="matrix(0.819, -0.574, 0.574, 0.819, 502.427, 2841.837)"/>
      <rect id="Rectangle_357" data-name="Rectangle 357" class="cls-2" width="46" height="46" transform="translate(920.42 2828.552) rotate(14)"/>
      <rect id="Rectangle_398" data-name="Rectangle 398" class="cls-2" width="46" height="46" transform="matrix(0.602, 0.799, -0.799, 0.602, 1056.699, 2764.222)"/>
      <rect id="Rectangle_388" data-name="Rectangle 388" class="cls-2" width="51" height="51" transform="translate(-5.58 2780.552) rotate(14)"/>
      <rect id="Rectangle_378" data-name="Rectangle 378" class="cls-2" width="46" height="46" transform="matrix(0.978, -0.208, 0.208, 0.978, 304.893, 3005.717)"/>
      <rect id="Rectangle_377" data-name="Rectangle 377" class="cls-2" width="46" height="46" transform="translate(607.42 2995.552) rotate(14)"/>
      <rect id="Rectangle_356" data-name="Rectangle 356" class="cls-2" width="21" height="21" transform="matrix(0.819, -0.574, 0.574, 0.819, 1052.14, 2912.784)"/>
      <path id="Union_36" data-name="Union 36" class="cls-2" d="M6.373,18.411V12.038H0V6.374H6.373V0h5.665V6.374h6.373v5.664H12.038v6.373Z" transform="translate(1242.863 2979.701) rotate(-13)"/>
      <path id="Union_44" data-name="Union 44" class="cls-2" d="M15.267,44.105V28.838H0V15.269H15.267V0H28.838V15.269H44.105V28.838H28.838V44.105Z" transform="translate(116.776 2842.391) rotate(6)"/>
      <path id="Union_41" data-name="Union 41" class="cls-2" d="M6.373,18.411V12.038H0V6.374H6.373V0h5.665V6.374h6.373v5.664H12.038v6.373Z" transform="matrix(0.921, 0.391, -0.391, 0.921, 671.027, 2909.529)"/>
      <path id="Union_37" data-name="Union 37" class="cls-2" d="M10.5,30.328V19.83H0V10.5H10.5V0H19.83V10.5h10.5V19.83H19.83v10.5Z" transform="translate(1122.424 2847.381) rotate(2)"/>
      <path id="Union_45" data-name="Union 45" class="cls-2" d="M10.5,30.328V19.83H0V10.5H10.5V0H19.83V10.5h10.5V19.83H19.83v10.5Z" transform="translate(355.166 2855.031) rotate(-23)"/>
      <path id="Union_39" data-name="Union 39" class="cls-2" d="M17.812,51.459V33.646H0V17.815H17.812V0H33.646V17.815H51.458V33.646H33.646V51.459Z" transform="translate(834.573 2960.028) rotate(-26)"/>
      <path id="Union_47" data-name="Union 47" class="cls-2" d="M17.812,51.459V33.646H0V17.815H17.812V0H33.646V17.815H51.458V33.646H33.646V51.459Z" transform="translate(1406.573 2939.028) rotate(-26)"/>
      <g id="Ellipse_20" data-name="Ellipse 20" class="cls-3" transform="translate(1366.413 2828.977)">
        <ellipse class="cls-6" cx="21.276" cy="21.276" rx="21.276" ry="21.276"/>
        <ellipse class="cls-7" cx="21.276" cy="21.276" rx="18.276" ry="18.276"/>
      </g>
      <g id="Ellipse_24" data-name="Ellipse 24" class="cls-4" transform="translate(-13.587 2928.977)">
        <ellipse class="cls-6" cx="28.776" cy="28.776" rx="28.776" ry="28.776"/>
        <ellipse class="cls-7" cx="28.776" cy="28.776" rx="25.276" ry="25.276"/>
      </g>
      <g id="Ellipse_20-2" data-name="Ellipse 20" class="cls-3" transform="translate(752.413 2921.977)">
        <ellipse class="cls-6" cx="21.276" cy="21.276" rx="21.276" ry="21.276"/>
        <ellipse class="cls-7" cx="21.276" cy="21.276" rx="18.276" ry="18.276"/>
      </g>
      <g id="Ellipse_21" data-name="Ellipse 21" class="cls-5" transform="translate(1121.413 2964.977)">
        <ellipse class="cls-6" cx="13.276" cy="13.276" rx="13.276" ry="13.276"/>
        <ellipse class="cls-7" cx="13.276" cy="13.276" rx="11.276" ry="11.276"/>
      </g>
      <g id="Ellipse_25" data-name="Ellipse 25" class="cls-5" transform="translate(747.413 2792.977)">
        <ellipse class="cls-6" cx="13.276" cy="13.276" rx="13.276" ry="13.276"/>
        <ellipse class="cls-7" cx="13.276" cy="13.276" rx="11.276" ry="11.276"/>
      </g>
      <g id="Ellipse_23" data-name="Ellipse 23" class="cls-3" transform="translate(236.413 2782.977)">
        <ellipse class="cls-6" cx="22.776" cy="22.776" rx="22.776" ry="22.776"/>
        <ellipse class="cls-7" cx="22.776" cy="22.776" rx="19.776" ry="19.776"/>
      </g>
      <path id="Path_53" data-name="Path 53" class="cls-2" d="M26.4,0,41.338,39.1,0,31.626Z" transform="translate(1187.787 2907.844) rotate(6)"/>
      <path id="Path_56" data-name="Path 56" class="cls-2" d="M26.4,0,41.338,39.1,0,31.626Z" transform="translate(1047.787 3001.844) rotate(6)"/>
      <path id="Path_54" data-name="Path 54" class="cls-2" d="M26.426,0,41.384,39.14,0,31.661Z" transform="matrix(0.978, 0.208, -0.208, 0.978, 793.128, 2839.001)"/>
      <path id="Path_55" data-name="Path 55" class="cls-2" d="M45.018,0,70.5,66.678,0,53.937Z" transform="matrix(0.978, 0.208, -0.208, 0.978, 211.128, 2885.001)"/>
    </g>
  </g>
</svg>
